# xmcd
# 
# Track frame offsets:
#     150
#     22816
#     39836
#     58999
#     83878
#     106165
#     123518
#     142643
#     161955
#     179667
#     199724
#     232261
# 
# Disc length: 4440
# 
# Revision: 3
# Processed by: cddbd v1.5.2PL0 Copyright (c) Steve Scherf et al.
# Submitted via: fre:ac v1.0.17
# 
DISCID=9f11560c
DTITLE=Eva Dahlgren - Snö
DYEAR=2005
DGENRE=Ballad
TTITLE0=Så Härlig Är Jorden
TTITLE1=Väntar Mig Brunt
TTITLE2=När Jag Längtar
TTITLE3=Människors Kärlek
TTITLE4=Här Vill Jag Vara
TTITLE5=Mitt Huvud Sa
TTITLE6=Bob Hund
TTITLE7=Som Ett Äventyr
TTITLE8=Det Som Bär Mig Nu
TTITLE9=Det Allra Största Ljuset
TTITLE10=Snö
TTITLE11=Data Track
EXTD=
EXTT0=
EXTT1=
EXTT2=
EXTT3=
EXTT4=
EXTT5=
EXTT6=
EXTT7=
EXTT8=
EXTT9=
EXTT10=
EXTT11=
PLAYORDER=
